# xmcd
#
# Track frame offsets: 
#        150
#        25800
#        42150
#        62381
#        83410
#        107066
#        124352
#        141677
#        159144
#        178810
#        194811
#
# Disc length: 2888 seconds
#
# Revision: 0
# Processed by: cddbd v1.5.2PL0 Copyright (c) Steve Scherf et al.
# Submitted via: ExactAudioCopy v0.99pb4
#
DISCID=950b460b
DTITLE=周杰倫 - 葉惠美
DYEAR=2003
DGENRE=Acid Jazz
TTITLE0=以父之名
TTITLE1=懦夫
TTITLE2=晴天
TTITLE3=三年二班
TTITLE4=東風破
TTITLE5=妳聽得到
TTITLE6=同一種調調
TTITLE7=她的睫毛
TTITLE8=愛情懸崖
TTITLE9=梯田
TTITLE10=雙刀
EXTD=
EXTT0=
EXTT1=
EXTT2=
EXTT3=
EXTT4=
EXTT5=
EXTT6=
EXTT7=
EXTT8=
EXTT9=
EXTT10=
PLAYORDER=
